<svg width="111" height="86" viewBox="0 0 111 86" fill="none" xmlns="http://www.w3.org/2000/svg">
<g filter="url(#filter0_d_575_1679)">
<mask id="path-1-inside-1_575_1679" fill="white">
<path fill-rule="evenodd" clip-rule="evenodd" d="M16.9802 66.9969C17.4668 69.8852 19.9678 72 22.8967 72H98.6912C102.005 72 104.691 69.3137 104.691 66V6C104.691 2.68629 102.005 0 98.6912 0H12.7868C9.07481 0 6.2534 3.33657 6.87018 6.99694L16.9802 66.9969Z"/>
</mask>
<path fill-rule="evenodd" clip-rule="evenodd" d="M16.9802 66.9969C17.4668 69.8852 19.9678 72 22.8967 72H98.6912C102.005 72 104.691 69.3137 104.691 66V6C104.691 2.68629 102.005 0 98.6912 0H12.7868C9.07481 0 6.2534 3.33657 6.87018 6.99694L16.9802 66.9969Z" fill="white"/>
<path d="M22.8967 70H98.6912V74H22.8967V70ZM102.691 66V6H106.691V66H102.691ZM98.6912 2H12.7868V-2H98.6912V2ZM8.84237 6.66463L18.9524 66.6646L15.008 67.3293L4.89798 7.32926L8.84237 6.66463ZM12.7868 2C10.3121 2 8.43119 4.22439 8.84237 6.66463L4.89798 7.32926C4.07561 2.44876 7.83749 -2 12.7868 -2V2ZM102.691 6C102.691 3.79086 100.9 2 98.6912 2V-2C103.109 -2 106.691 1.58172 106.691 6H102.691ZM98.6912 70C100.9 70 102.691 68.2091 102.691 66H106.691C106.691 70.4183 103.109 74 98.6912 74V70ZM22.8967 74C18.9914 74 15.6569 71.1803 15.008 67.3293L18.9524 66.6646C19.2768 68.5901 20.9441 70 22.8967 70V74Z" fill="white" mask="url(#path-1-inside-1_575_1679)"/>
</g>
<path d="M55.1198 47.7143H60.2626H55.1198ZM48.6912 31C48.6912 28.613 49.6394 26.3239 51.3272 24.636C53.0151 22.9482 55.3042 22 57.6912 22C60.0781 22 62.3673 22.9482 64.0552 24.636C65.743 26.3239 66.6912 28.613 66.6912 31C66.692 32.4491 66.3416 33.8768 65.6698 35.1608C64.998 36.4447 64.025 37.5467 62.834 38.3723L62.1372 41.6714C62.0449 42.2795 61.7378 42.8344 61.2714 43.2354C60.805 43.6365 60.2104 43.857 59.5953 43.8571H55.787C55.172 43.857 54.5773 43.6365 54.111 43.2354C53.6446 42.8344 53.3375 42.2795 53.2452 41.6714L52.5483 38.3864C51.357 37.5579 50.3839 36.4534 49.7122 35.1671C49.0406 33.8808 48.6902 32.4511 48.6912 31V31Z" stroke="#545454" stroke-width="2" stroke-linecap="round" stroke-linejoin="round"/>
<path d="M52.5483 38.7144H62.8341" stroke="#545454" stroke-width="2" stroke-linecap="round" stroke-linejoin="round"/>
<defs>
<filter id="filter0_d_575_1679" x="0.785248" y="0" width="109.906" height="86" filterUnits="userSpaceOnUse" color-interpolation-filters="sRGB">
<feFlood flood-opacity="0" result="BackgroundImageFix"/>
<feColorMatrix in="SourceAlpha" type="matrix" values="0 0 0 0 0 0 0 0 0 0 0 0 0 0 0 0 0 0 127 0" result="hardAlpha"/>
<feOffset dy="8"/>
<feGaussianBlur stdDeviation="3"/>
<feComposite in2="hardAlpha" operator="out"/>
<feColorMatrix type="matrix" values="0 0 0 0 0 0 0 0 0 0 0 0 0 0 0 0 0 0 0.1 0"/>
<feBlend mode="normal" in2="BackgroundImageFix" result="effect1_dropShadow_575_1679"/>
<feBlend mode="normal" in="SourceGraphic" in2="effect1_dropShadow_575_1679" result="shape"/>
</filter>
</defs>
</svg>
