<?xml version="1.0" encoding="utf-8"?>
<!-- Generator: Adobe Illustrator 26.0.3, SVG Export Plug-In . SVG Version: 6.00 Build 0)  -->
<svg version="1.1" id="Layer_1" xmlns="http://www.w3.org/2000/svg" xmlns:xlink="http://www.w3.org/1999/xlink" x="0px" y="0px"
	 viewBox="0 0 112.2 92" style="enable-background:new 0 0 112.2 92;" xml:space="preserve">
<style type="text/css">
	.st0{fill-rule:evenodd;clip-rule:evenodd;fill:#FFFFFF;}
	.st1{fill-rule:evenodd;clip-rule:evenodd;fill:#FFFFFF;filter:url(#Adobe_OpacityMaskFilter);}
	.st2{mask:url(#path-1-inside-1_575_1679_00000122712354685363039760000003678408166391882148_);fill:#FFFFFF;}
	.st3{fill:none;stroke:#545454;stroke-width:2;stroke-linecap:round;stroke-linejoin:round;}
</style>
<g>
	<path class="st0" d="M12.2,73c0.5,2.9,3,5,5.9,5h75.8c3.3,0,6-2.7,6-6V12c0-3.3-2.7-6-6-6H8c-3.7,0-6.5,3.3-5.9,7L12.2,73z"/>
	<defs>
		<filter id="Adobe_OpacityMaskFilter" filterUnits="userSpaceOnUse" x="0" y="4" width="101.9" height="76">
			<feColorMatrix  type="matrix" values="1 0 0 0 0  0 1 0 0 0  0 0 1 0 0  0 0 0 1 0"/>
		</filter>
	</defs>
	
		<mask maskUnits="userSpaceOnUse" x="0" y="4" width="101.9" height="76" id="path-1-inside-1_575_1679_00000122712354685363039760000003678408166391882148_">
		<path class="st1" d="M12.2,73c0.5,2.9,3,5,5.9,5h75.8c3.3,0,6-2.7,6-6V12c0-3.3-2.7-6-6-6H8c-3.7,0-6.5,3.3-5.9,7L12.2,73z"/>
	</mask>
	<path class="st2" d="M18.1,76h75.8v4H18.1V76z M97.9,72V12h4v60H97.9z M93.9,8H8V4h85.9V8z M4.1,12.7l10.1,60l-3.9,0.7l-10.1-60
		L4.1,12.7z M8,8c-2.5,0-4.4,2.2-3.9,4.7l-3.9,0.7C-0.7,8.4,3.1,4,8,4V8z M97.9,12c0-2.2-1.8-4-4-4V4c4.4,0,8,3.6,8,8H97.9z
		 M93.9,76c2.2,0,4-1.8,4-4h4c0,4.4-3.6,8-8,8V76z M18.1,80c-3.9,0-7.2-2.8-7.9-6.7l3.9-0.7c0.3,1.9,2,3.3,3.9,3.3V80z"/>
</g>
<path class="st3" d="M50.3,53.7h5.1H50.3z M43.9,37c0-2.4,0.9-4.7,2.6-6.4c1.7-1.7,4-2.6,6.4-2.6c2.4,0,4.7,0.9,6.4,2.6
	c1.7,1.7,2.6,4,2.6,6.4c0,1.4-0.3,2.9-1,4.2c-0.7,1.3-1.6,2.4-2.8,3.2l-0.7,3.3c-0.1,0.6-0.4,1.2-0.9,1.6c-0.5,0.4-1.1,0.6-1.7,0.6
	H51c-0.6,0-1.2-0.2-1.7-0.6c-0.5-0.4-0.8-1-0.9-1.6l-0.7-3.3c-1.2-0.8-2.2-1.9-2.8-3.2C44.3,39.9,43.9,38.5,43.9,37L43.9,37z"/>
<path class="st3" d="M47.8,44.7H58"/>
</svg>
