<svg width="107" height="92" viewBox="0 0 107 92" fill="none" xmlns="http://www.w3.org/2000/svg">
<g filter="url(#filter0_d_575_1686)">
<mask id="path-1-inside-1_575_1686" fill="white">
<path fill-rule="evenodd" clip-rule="evenodd" d="M88.6912 78C92.0049 78 94.6912 75.3137 94.6912 72V12C94.6912 8.68629 92.0049 6 88.6912 6H14.1395C10.3559 6 7.51676 9.45942 8.25482 13.1704L20.1879 73.1704C20.7463 75.9779 23.2101 78 26.0727 78H88.6912Z"/>
</mask>
<path fill-rule="evenodd" clip-rule="evenodd" d="M88.6912 78C92.0049 78 94.6912 75.3137 94.6912 72V12C94.6912 8.68629 92.0049 6 88.6912 6H14.1395C10.3559 6 7.51676 9.45942 8.25482 13.1704L20.1879 73.1704C20.7463 75.9779 23.2101 78 26.0727 78H88.6912Z" fill="white"/>
<path d="M20.1879 73.1704L18.2263 73.5605L20.1879 73.1704ZM8.25482 13.1704L10.2164 12.7803L8.25482 13.1704ZM92.6912 72V12H96.6912V72H92.6912ZM88.6912 8H14.1395V4H88.6912V8ZM10.2164 12.7803L22.1495 72.7803L18.2263 73.5605L6.29324 13.5605L10.2164 12.7803ZM26.0727 76H88.6912V80H26.0727V76ZM22.1495 72.7803C22.5217 74.6519 24.1643 76 26.0727 76V80C22.256 80 18.9708 77.3039 18.2263 73.5605L22.1495 72.7803ZM14.1395 8C11.6171 8 9.72436 10.3063 10.2164 12.7803L6.29324 13.5605C5.30916 8.61256 9.09467 4 14.1395 4V8ZM92.6912 12C92.6912 9.79086 90.9003 8 88.6912 8V4C93.1095 4 96.6912 7.58172 96.6912 12H92.6912ZM96.6912 72C96.6912 76.4183 93.1095 80 88.6912 80V76C90.9003 76 92.6912 74.2091 92.6912 72H96.6912Z" fill="white" mask="url(#path-1-inside-1_575_1686)"/>
</g>
<path d="M52.1198 54.7143H57.2626H52.1198ZM45.6912 38C45.6912 35.613 46.6394 33.3239 48.3272 31.636C50.0151 29.9482 52.3042 29 54.6912 29C57.0781 29 59.3673 29.9482 61.0552 31.636C62.743 33.3239 63.6912 35.613 63.6912 38C63.692 39.4491 63.3416 40.8768 62.6698 42.1608C61.998 43.4447 61.025 44.5467 59.834 45.3723L59.1372 48.6714C59.0449 49.2795 58.7378 49.8344 58.2714 50.2354C57.805 50.6365 57.2104 50.857 56.5953 50.8571H52.787C52.172 50.857 51.5773 50.6365 51.111 50.2354C50.6446 49.8344 50.3375 49.2795 50.2452 48.6714L49.5483 45.3864C48.357 44.5579 47.3839 43.4534 46.7122 42.1671C46.0406 40.8808 45.6902 39.4511 45.6912 38V38Z" stroke="#545454" stroke-width="2" stroke-linecap="round" stroke-linejoin="round"/>
<path d="M49.5483 45.7144H59.8341" stroke="#545454" stroke-width="2" stroke-linecap="round" stroke-linejoin="round"/>
<defs>
<filter id="filter0_d_575_1686" x="0.137543" y="0" width="106.554" height="92" filterUnits="userSpaceOnUse" color-interpolation-filters="sRGB">
<feFlood flood-opacity="0" result="BackgroundImageFix"/>
<feColorMatrix in="SourceAlpha" type="matrix" values="0 0 0 0 0 0 0 0 0 0 0 0 0 0 0 0 0 0 127 0" result="hardAlpha"/>
<feOffset dx="2" dy="4"/>
<feGaussianBlur stdDeviation="5"/>
<feComposite in2="hardAlpha" operator="out"/>
<feColorMatrix type="matrix" values="0 0 0 0 0 0 0 0 0 0 0 0 0 0 0 0 0 0 0.15 0"/>
<feBlend mode="normal" in2="BackgroundImageFix" result="effect1_dropShadow_575_1686"/>
<feBlend mode="normal" in="SourceGraphic" in2="effect1_dropShadow_575_1686" result="shape"/>
</filter>
</defs>
</svg>
