<svg width="93" height="92" viewBox="0 0 93 92" fill="none" xmlns="http://www.w3.org/2000/svg">
<g filter="url(#filter0_d_575_1693)">
<mask id="path-1-inside-1_575_1693" fill="white">
<path fill-rule="evenodd" clip-rule="evenodd" d="M74.6912 78C78.0049 78 80.6912 75.3137 80.6912 72V12C80.6912 8.68629 78.0049 6 74.6912 6H14.4593C10.6756 6 7.83647 9.45941 8.57453 13.1704L20.5076 73.1704C21.066 75.9779 23.5298 78 26.3923 78H74.6912Z"/>
</mask>
<path fill-rule="evenodd" clip-rule="evenodd" d="M74.6912 78C78.0049 78 80.6912 75.3137 80.6912 72V12C80.6912 8.68629 78.0049 6 74.6912 6H14.4593C10.6756 6 7.83647 9.45941 8.57453 13.1704L20.5076 73.1704C21.066 75.9779 23.5298 78 26.3923 78H74.6912Z" fill="white"/>
<path d="M20.5076 73.1704L22.4692 72.7803L20.5076 73.1704ZM8.57453 13.1704L6.61294 13.5605L8.57453 13.1704ZM78.6912 72V12H82.6912V72H78.6912ZM74.6912 8H14.4593V4H74.6912V8ZM10.5361 12.7803L22.4692 72.7803L18.546 73.5605L6.61294 13.5605L10.5361 12.7803ZM26.3923 76H74.6912V80H26.3923V76ZM22.4692 72.7803C22.8414 74.6519 24.484 76 26.3923 76V80C22.5757 80 19.2905 77.3039 18.546 73.5605L22.4692 72.7803ZM14.4593 8C11.9368 8 10.0441 10.3063 10.5361 12.7803L6.61294 13.5605C5.62887 8.61255 9.4144 4 14.4593 4V8ZM78.6912 12C78.6912 9.79086 76.9003 8 74.6912 8V4C79.1095 4 82.6912 7.58172 82.6912 12H78.6912ZM82.6912 72C82.6912 76.4183 79.1095 80 74.6912 80V76C76.9003 76 78.6912 74.2091 78.6912 72H82.6912Z" fill="white" mask="url(#path-1-inside-1_575_1693)"/>
</g>
<path d="M45.1198 54.7143H50.2626H45.1198ZM38.6912 38C38.6912 35.613 39.6394 33.3239 41.3272 31.636C43.0151 29.9482 45.3042 29 47.6912 29C50.0781 29 52.3673 29.9482 54.0552 31.636C55.743 33.3239 56.6912 35.613 56.6912 38C56.692 39.4491 56.3416 40.8768 55.6698 42.1608C54.998 43.4447 54.025 44.5467 52.834 45.3723L52.1372 48.6714C52.0449 49.2795 51.7378 49.8344 51.2714 50.2354C50.805 50.6365 50.2104 50.857 49.5953 50.8571H45.787C45.172 50.857 44.5773 50.6365 44.111 50.2354C43.6446 49.8344 43.3375 49.2795 43.2452 48.6714L42.5483 45.3864C41.357 44.5579 40.3839 43.4534 39.7122 42.1671C39.0406 40.8808 38.6902 39.4511 38.6912 38V38Z" stroke="#545454" stroke-width="2" stroke-linecap="round" stroke-linejoin="round"/>
<path d="M42.5483 45.7144H52.8341" stroke="#545454" stroke-width="2" stroke-linecap="round" stroke-linejoin="round"/>
<defs>
<filter id="filter0_d_575_1693" x="0.457245" y="0" width="92.2339" height="92" filterUnits="userSpaceOnUse" color-interpolation-filters="sRGB">
<feFlood flood-opacity="0" result="BackgroundImageFix"/>
<feColorMatrix in="SourceAlpha" type="matrix" values="0 0 0 0 0 0 0 0 0 0 0 0 0 0 0 0 0 0 127 0" result="hardAlpha"/>
<feOffset dx="2" dy="4"/>
<feGaussianBlur stdDeviation="5"/>
<feComposite in2="hardAlpha" operator="out"/>
<feColorMatrix type="matrix" values="0 0 0 0 0 0 0 0 0 0 0 0 0 0 0 0 0 0 0.15 0"/>
<feBlend mode="normal" in2="BackgroundImageFix" result="effect1_dropShadow_575_1693"/>
<feBlend mode="normal" in="SourceGraphic" in2="effect1_dropShadow_575_1693" result="shape"/>
</filter>
</defs>
</svg>
