<svg width="79" height="92" viewBox="0 0 79 92" fill="none" xmlns="http://www.w3.org/2000/svg">
<g filter="url(#filter0_d_575_1700)">
<mask id="path-1-inside-1_575_1700" fill="white">
<path fill-rule="evenodd" clip-rule="evenodd" d="M14.7197 6C10.9556 6 8.12109 9.4258 8.82584 13.1234L20.2617 73.1234C20.801 75.953 23.2751 78 26.1556 78H60.6912C64.0049 78 66.6912 75.3137 66.6912 72V12C66.6912 8.68629 64.0049 6 60.6912 6H14.7197Z"/>
</mask>
<path fill-rule="evenodd" clip-rule="evenodd" d="M14.7197 6C10.9556 6 8.12109 9.4258 8.82584 13.1234L20.2617 73.1234C20.801 75.953 23.2751 78 26.1556 78H60.6912C64.0049 78 66.6912 75.3137 66.6912 72V12C66.6912 8.68629 64.0049 6 60.6912 6H14.7197Z" fill="white"/>
<path d="M20.2617 73.1234L18.2971 73.4978L20.2617 73.1234ZM10.7905 12.7489L22.2263 72.7489L18.2971 73.4978L6.86121 13.4978L10.7905 12.7489ZM26.1556 76H60.6912V80H26.1556V76ZM64.6912 72V12H68.6912V72H64.6912ZM60.6912 8H14.7197V4H60.6912V8ZM64.6912 12C64.6912 9.79086 62.9003 8 60.6912 8V4C65.1095 4 68.6912 7.58172 68.6912 12H64.6912ZM60.6912 76C62.9003 76 64.6912 74.2091 64.6912 72H68.6912C68.6912 76.4183 65.1095 80 60.6912 80V76ZM22.2263 72.7489C22.5859 74.6353 24.2353 76 26.1556 76V80C22.3149 80 19.0162 77.2706 18.2971 73.4978L22.2263 72.7489ZM6.86121 13.4978C5.92154 8.56773 9.7009 4 14.7197 4V8C12.2103 8 10.3206 10.2839 10.7905 12.7489L6.86121 13.4978Z" fill="white" mask="url(#path-1-inside-1_575_1700)"/>
</g>
<path d="M38.1198 53.7143H43.2626H38.1198ZM31.6912 37C31.6912 34.613 32.6394 32.3239 34.3272 30.636C36.0151 28.9482 38.3042 28 40.6912 28C43.0781 28 45.3673 28.9482 47.0552 30.636C48.743 32.3239 49.6912 34.613 49.6912 37C49.692 38.4491 49.3416 39.8768 48.6698 41.1608C47.998 42.4447 47.025 43.5467 45.834 44.3723L45.1372 47.6714C45.0449 48.2795 44.7378 48.8344 44.2714 49.2354C43.805 49.6365 43.2104 49.857 42.5953 49.8571H38.787C38.172 49.857 37.5773 49.6365 37.111 49.2354C36.6446 48.8344 36.3375 48.2795 36.2452 47.6714L35.5483 44.3864C34.357 43.5579 33.3839 42.4534 32.7122 41.1671C32.0406 39.8808 31.6902 38.4511 31.6912 37V37Z" stroke="#545454" stroke-width="2" stroke-linecap="round" stroke-linejoin="round"/>
<path d="M35.5483 44.7144H45.8341" stroke="#545454" stroke-width="2" stroke-linecap="round" stroke-linejoin="round"/>
<defs>
<filter id="filter0_d_575_1700" x="0.717865" y="0" width="77.9733" height="92" filterUnits="userSpaceOnUse" color-interpolation-filters="sRGB">
<feFlood flood-opacity="0" result="BackgroundImageFix"/>
<feColorMatrix in="SourceAlpha" type="matrix" values="0 0 0 0 0 0 0 0 0 0 0 0 0 0 0 0 0 0 127 0" result="hardAlpha"/>
<feOffset dx="2" dy="4"/>
<feGaussianBlur stdDeviation="5"/>
<feComposite in2="hardAlpha" operator="out"/>
<feColorMatrix type="matrix" values="0 0 0 0 0 0 0 0 0 0 0 0 0 0 0 0 0 0 0.15 0"/>
<feBlend mode="normal" in2="BackgroundImageFix" result="effect1_dropShadow_575_1700"/>
<feBlend mode="normal" in="SourceGraphic" in2="effect1_dropShadow_575_1700" result="shape"/>
</filter>
</defs>
</svg>
